# xmcd
#
# Track frame offsets:
#	150
#	11897
#	22647
#	35128
#	45333
#	55197
#	69267
#	76907
#	87525
#	101043
#	113370
#	124978
#	137260
#	150394
#	161418
#
# Disc length: 2319 seconds
#
# Revision: 0
# Processed by: cddbd v1.5.2PL0 Copyright (c) Steve Scherf et al.
# Submitted via: audiograbber 1.82.02
#
DISCID=ab090d0f
DTITLE=Jim Reeves - Precious Memories - Disc 1
DYEAR=2001
DGENRE=Gospel
TTITLE0=I'll Fly Away
TTITLE1=Where We'll Never grow old
TTITLE2=I'd Rather Have Jesus
TTITLE3=A Beautiful Life
TTITLE4=Across The Bridge
TTITLE5=Whispering Hope
TTITLE6=Teach Me How To Pray
TTITLE7=Peace In The Valley
TTITLE8=It Is No Secret
TTITLE9=We Thank Thee
TTITLE10=Where Do I Go From Here
TTITLE11=He Will
TTITLE12=Oh Gentle Shepherd
TTITLE13=Take My Hand Precious Lord
TTITLE14=When God Dips His Love In My Heart
EXTD=
EXTT0=
EXTT1=
EXTT2=
EXTT3=
EXTT4=
EXTT5=
EXTT6=
EXTT7=
EXTT8=
EXTT9=
EXTT10=
EXTT11=
EXTT12=
EXTT13=
EXTT14=
PLAYORDER=
